<svg xmlns="http://www.w3.org/2000/svg" width="169" height="169"><rect x="0" y="0" width="100%" height="100%" fill="rgb(196, 64, 180)"  /><g fill="#ddd" style="opacity:0.10666666666666667;" transform="translate(-28.29,-28.29) rotate(45, 28.29, 28.29)" ><rect x="20.0" y="0" width="20.0" height="60.0"  /><rect x="0" y="20.0" width="60.0" height="20.0"  /></g><g fill="#ddd" style="opacity:0.10666666666666667;" transform="translate(141.45000000000002,-28.29) rotate(45, 28.29, 28.29)" ><rect x="20.0" y="0" width="20.0" height="60.0"  /><rect x="0" y="20.0" width="60.0" height="20.0"  /></g><g fill="#ddd" style="opacity:0.10666666666666667;" transform="translate(-28.29,141.45) rotate(45, 28.29, 28.29)" ><rect x="20.0" y="0" width="20.0" height="60.0"  /><rect x="0" y="20.0" width="60.0" height="20.0"  /></g><g fill="#ddd" style="opacity:0.10666666666666667;" transform="translate(141.45000000000002,141.45) rotate(45, 28.29, 28.29)" ><rect x="20.0" y="0" width="20.0" height="60.0"  /><rect x="0" y="20.0" width="60.0" height="20.0"  /></g><g fill="#222" style="opacity:0.06333333333333334;" transform="translate(0.0,-14.145) rotate(45, 28.29, 28.29)" ><rect x="20.0" y="0" width="20.0" height="60.0"  /><rect x="0" y="20.0" width="60.0" height="20.0"  /></g><g fill="#222" style="opacity:0.06333333333333334;" transform="translate(0.0,155.59499999999997) rotate(45, 28.29, 28.29)" ><rect x="20.0" y="0" width="20.0" height="60.0"  /><rect x="0" y="20.0" width="60.0" height="20.0"  /></g><g fill="#ddd" style="opacity:0.02;" transform="translate(28.29,-28.29) rotate(45, 28.29, 28.29)" ><rect x="20.0" y="0" width="20.0" height="60.0"  /><rect x="0" y="20.0" width="60.0" height="20.0"  /></g><g fill="#ddd" style="opacity:0.02;" transform="translate(28.29,141.45) rotate(45, 28.29, 28.29)" ><rect x="20.0" y="0" width="20.0" height="60.0"  /><rect x="0" y="20.0" width="60.0" height="20.0"  /></g><g fill="#222" style="opacity:0.08066666666666666;" transform="translate(56.580000000000005,-14.145) rotate(45, 28.29, 28.29)" ><rect x="20.0" y="0" width="20.0" height="60.0"  /><rect x="0" y="20.0" width="60.0" height="20.0"  /></g><g fill="#222" style="opacity:0.08066666666666666;" transform="translate(56.580000000000005,155.59499999999997) rotate(45, 28.29, 28.29)" ><rect x="20.0" y="0" width="20.0" height="60.0"  /><rect x="0" y="20.0" width="60.0" height="20.0"  /></g><g fill="#222" style="opacity:0.15;" transform="translate(84.87,-28.29) rotate(45, 28.29, 28.29)" ><rect x="20.0" y="0" width="20.0" height="60.0"  /><rect x="0" y="20.0" width="60.0" height="20.0"  /></g><g fill="#222" style="opacity:0.15;" transform="translate(84.87,141.45) rotate(45, 28.29, 28.29)" ><rect x="20.0" y="0" width="20.0" height="60.0"  /><rect x="0" y="20.0" width="60.0" height="20.0"  /></g><g fill="#222" style="opacity:0.028666666666666667;" transform="translate(113.16,-14.145) rotate(45, 28.29, 28.29)" ><rect x="20.0" y="0" width="20.0" height="60.0"  /><rect x="0" y="20.0" width="60.0" height="20.0"  /></g><g fill="#222" style="opacity:0.028666666666666667;" transform="translate(113.16,155.59499999999997) rotate(45, 28.29, 28.29)" ><rect x="20.0" y="0" width="20.0" height="60.0"  /><rect x="0" y="20.0" width="60.0" height="20.0"  /></g><g fill="#222" style="opacity:0.098;" transform="translate(-28.29,0.0) rotate(45, 28.29, 28.29)" ><rect x="20.0" y="0" width="20.0" height="60.0"  /><rect x="0" y="20.0" width="60.0" height="20.0"  /></g><g fill="#222" style="opacity:0.098;" transform="translate(141.45000000000002,0.0) rotate(45, 28.29, 28.29)" ><rect x="20.0" y="0" width="20.0" height="60.0"  /><rect x="0" y="20.0" width="60.0" height="20.0"  /></g><g fill="#ddd" style="opacity:0.03733333333333333;" transform="translate(0.0,14.145000000000003) rotate(45, 28.29, 28.29)" ><rect x="20.0" y="0" width="20.0" height="60.0"  /><rect x="0" y="20.0" width="60.0" height="20.0"  /></g><g fill="#222" style="opacity:0.13266666666666665;" transform="translate(28.29,0.0) rotate(45, 28.29, 28.29)" ><rect x="20.0" y="0" width="20.0" height="60.0"  /><rect x="0" y="20.0" width="60.0" height="20.0"  /></g><g fill="#222" style="opacity:0.098;" transform="translate(56.580000000000005,14.145000000000003) rotate(45, 28.29, 28.29)" ><rect x="20.0" y="0" width="20.0" height="60.0"  /><rect x="0" y="20.0" width="60.0" height="20.0"  /></g><g fill="#ddd" style="opacity:0.12400000000000001;" transform="translate(84.87,0.0) rotate(45, 28.29, 28.29)" ><rect x="20.0" y="0" width="20.0" height="60.0"  /><rect x="0" y="20.0" width="60.0" height="20.0"  /></g><g fill="#222" style="opacity:0.046;" transform="translate(113.16,14.145000000000003) rotate(45, 28.29, 28.29)" ><rect x="20.0" y="0" width="20.0" height="60.0"  /><rect x="0" y="20.0" width="60.0" height="20.0"  /></g><g fill="#ddd" style="opacity:0.10666666666666667;" transform="translate(-28.29,28.290000000000006) rotate(45, 28.29, 28.29)" ><rect x="20.0" y="0" width="20.0" height="60.0"  /><rect x="0" y="20.0" width="60.0" height="20.0"  /></g><g fill="#ddd" style="opacity:0.10666666666666667;" transform="translate(141.45000000000002,28.290000000000006) rotate(45, 28.29, 28.29)" ><rect x="20.0" y="0" width="20.0" height="60.0"  /><rect x="0" y="20.0" width="60.0" height="20.0"  /></g><g fill="#222" style="opacity:0.13266666666666665;" transform="translate(0.0,42.435) rotate(45, 28.29, 28.29)" ><rect x="20.0" y="0" width="20.0" height="60.0"  /><rect x="0" y="20.0" width="60.0" height="20.0"  /></g><g fill="#ddd" style="opacity:0.03733333333333333;" transform="translate(28.29,28.290000000000006) rotate(45, 28.29, 28.29)" ><rect x="20.0" y="0" width="20.0" height="60.0"  /><rect x="0" y="20.0" width="60.0" height="20.0"  /></g><g fill="#222" style="opacity:0.06333333333333334;" transform="translate(56.580000000000005,42.435) rotate(45, 28.29, 28.29)" ><rect x="20.0" y="0" width="20.0" height="60.0"  /><rect x="0" y="20.0" width="60.0" height="20.0"  /></g><g fill="#222" style="opacity:0.098;" transform="translate(84.87,28.290000000000006) rotate(45, 28.29, 28.29)" ><rect x="20.0" y="0" width="20.0" height="60.0"  /><rect x="0" y="20.0" width="60.0" height="20.0"  /></g><g fill="#ddd" style="opacity:0.02;" transform="translate(113.16,42.435) rotate(45, 28.29, 28.29)" ><rect x="20.0" y="0" width="20.0" height="60.0"  /><rect x="0" y="20.0" width="60.0" height="20.0"  /></g><g fill="#222" style="opacity:0.15;" transform="translate(-28.29,56.58000000000001) rotate(45, 28.29, 28.29)" ><rect x="20.0" y="0" width="20.0" height="60.0"  /><rect x="0" y="20.0" width="60.0" height="20.0"  /></g><g fill="#222" style="opacity:0.15;" transform="translate(141.45000000000002,56.58000000000001) rotate(45, 28.29, 28.29)" ><rect x="20.0" y="0" width="20.0" height="60.0"  /><rect x="0" y="20.0" width="60.0" height="20.0"  /></g><g fill="#ddd" style="opacity:0.12400000000000001;" transform="translate(0.0,70.72500000000002) rotate(45, 28.29, 28.29)" ><rect x="20.0" y="0" width="20.0" height="60.0"  /><rect x="0" y="20.0" width="60.0" height="20.0"  /></g><g fill="#222" style="opacity:0.046;" transform="translate(28.29,56.58000000000001) rotate(45, 28.29, 28.29)" ><rect x="20.0" y="0" width="20.0" height="60.0"  /><rect x="0" y="20.0" width="60.0" height="20.0"  /></g><g fill="#222" style="opacity:0.08066666666666666;" transform="translate(56.580000000000005,70.72500000000002) rotate(45, 28.29, 28.29)" ><rect x="20.0" y="0" width="20.0" height="60.0"  /><rect x="0" y="20.0" width="60.0" height="20.0"  /></g><g fill="#ddd" style="opacity:0.14133333333333334;" transform="translate(84.87,56.58000000000001) rotate(45, 28.29, 28.29)" ><rect x="20.0" y="0" width="20.0" height="60.0"  /><rect x="0" y="20.0" width="60.0" height="20.0"  /></g><g fill="#ddd" style="opacity:0.08933333333333333;" transform="translate(113.16,70.72500000000002) rotate(45, 28.29, 28.29)" ><rect x="20.0" y="0" width="20.0" height="60.0"  /><rect x="0" y="20.0" width="60.0" height="20.0"  /></g><g fill="#222" style="opacity:0.06333333333333334;" transform="translate(-28.29,84.87) rotate(45, 28.29, 28.29)" ><rect x="20.0" y="0" width="20.0" height="60.0"  /><rect x="0" y="20.0" width="60.0" height="20.0"  /></g><g fill="#222" style="opacity:0.06333333333333334;" transform="translate(141.45000000000002,84.87) rotate(45, 28.29, 28.29)" ><rect x="20.0" y="0" width="20.0" height="60.0"  /><rect x="0" y="20.0" width="60.0" height="20.0"  /></g><g fill="#222" style="opacity:0.046;" transform="translate(0.0,99.01500000000001) rotate(45, 28.29, 28.29)" ><rect x="20.0" y="0" width="20.0" height="60.0"  /><rect x="0" y="20.0" width="60.0" height="20.0"  /></g><g fill="#ddd" style="opacity:0.10666666666666667;" transform="translate(28.29,84.87) rotate(45, 28.29, 28.29)" ><rect x="20.0" y="0" width="20.0" height="60.0"  /><rect x="0" y="20.0" width="60.0" height="20.0"  /></g><g fill="#222" style="opacity:0.046;" transform="translate(56.580000000000005,99.01500000000001) rotate(45, 28.29, 28.29)" ><rect x="20.0" y="0" width="20.0" height="60.0"  /><rect x="0" y="20.0" width="60.0" height="20.0"  /></g><g fill="#ddd" style="opacity:0.03733333333333333;" transform="translate(84.87,84.87) rotate(45, 28.29, 28.29)" ><rect x="20.0" y="0" width="20.0" height="60.0"  /><rect x="0" y="20.0" width="60.0" height="20.0"  /></g><g fill="#ddd" style="opacity:0.14133333333333334;" transform="translate(113.16,99.01500000000001) rotate(45, 28.29, 28.29)" ><rect x="20.0" y="0" width="20.0" height="60.0"  /><rect x="0" y="20.0" width="60.0" height="20.0"  /></g><g fill="#222" style="opacity:0.11533333333333334;" transform="translate(-28.29,113.16) rotate(45, 28.29, 28.29)" ><rect x="20.0" y="0" width="20.0" height="60.0"  /><rect x="0" y="20.0" width="60.0" height="20.0"  /></g><g fill="#222" style="opacity:0.11533333333333334;" transform="translate(141.45000000000002,113.16) rotate(45, 28.29, 28.29)" ><rect x="20.0" y="0" width="20.0" height="60.0"  /><rect x="0" y="20.0" width="60.0" height="20.0"  /></g><g fill="#222" style="opacity:0.11533333333333334;" transform="translate(-28.29,-56.58000000000001) rotate(45, 28.29, 28.29)" ><rect x="20.0" y="0" width="20.0" height="60.0"  /><rect x="0" y="20.0" width="60.0" height="20.0"  /></g><g fill="#ddd" style="opacity:0.08933333333333333;" transform="translate(0.0,127.305) rotate(45, 28.29, 28.29)" ><rect x="20.0" y="0" width="20.0" height="60.0"  /><rect x="0" y="20.0" width="60.0" height="20.0"  /></g><g fill="#ddd" style="opacity:0.08933333333333333;" transform="translate(0.0,-42.435) rotate(45, 28.29, 28.29)" ><rect x="20.0" y="0" width="20.0" height="60.0"  /><rect x="0" y="20.0" width="60.0" height="20.0"  /></g><g fill="#222" style="opacity:0.046;" transform="translate(28.29,113.16) rotate(45, 28.29, 28.29)" ><rect x="20.0" y="0" width="20.0" height="60.0"  /><rect x="0" y="20.0" width="60.0" height="20.0"  /></g><g fill="#222" style="opacity:0.046;" transform="translate(28.29,-56.58000000000001) rotate(45, 28.29, 28.29)" ><rect x="20.0" y="0" width="20.0" height="60.0"  /><rect x="0" y="20.0" width="60.0" height="20.0"  /></g><g fill="#ddd" style="opacity:0.07200000000000001;" transform="translate(56.580000000000005,127.305) rotate(45, 28.29, 28.29)" ><rect x="20.0" y="0" width="20.0" height="60.0"  /><rect x="0" y="20.0" width="60.0" height="20.0"  /></g><g fill="#ddd" style="opacity:0.07200000000000001;" transform="translate(56.580000000000005,-42.435) rotate(45, 28.29, 28.29)" ><rect x="20.0" y="0" width="20.0" height="60.0"  /><rect x="0" y="20.0" width="60.0" height="20.0"  /></g><g fill="#222" style="opacity:0.046;" transform="translate(84.87,113.16) rotate(45, 28.29, 28.29)" ><rect x="20.0" y="0" width="20.0" height="60.0"  /><rect x="0" y="20.0" width="60.0" height="20.0"  /></g><g fill="#222" style="opacity:0.046;" transform="translate(84.87,-56.58000000000001) rotate(45, 28.29, 28.29)" ><rect x="20.0" y="0" width="20.0" height="60.0"  /><rect x="0" y="20.0" width="60.0" height="20.0"  /></g><g fill="#ddd" style="opacity:0.10666666666666667;" transform="translate(113.16,127.305) rotate(45, 28.29, 28.29)" ><rect x="20.0" y="0" width="20.0" height="60.0"  /><rect x="0" y="20.0" width="60.0" height="20.0"  /></g><g fill="#ddd" style="opacity:0.10666666666666667;" transform="translate(113.16,-42.435) rotate(45, 28.29, 28.29)" ><rect x="20.0" y="0" width="20.0" height="60.0"  /><rect x="0" y="20.0" width="60.0" height="20.0"  /></g></svg>